<svg width="42" height="42" viewBox="0 0 42 42" fill="none" xmlns="http://www.w3.org/2000/svg">
<path d="M20.7812 35C20.8979 35 21.0146 34.9708 21.1312 34.9125C21.2479 34.8542 21.3354 34.7958 21.3937 34.7375L35.7437 20.3875C36.0937 20.0375 36.3492 19.6438 36.5102 19.2063C36.6712 18.7688 36.7512 18.3313 36.75 17.8938C36.75 17.4271 36.6701 16.982 36.5102 16.5585C36.3504 16.135 36.0949 15.7634 35.7437 15.4437L28.3062 8.00625C27.9854 7.65625 27.6132 7.40133 27.1897 7.2415C26.7662 7.08167 26.3223 7.00117 25.858 7C25.4205 7 24.983 7.0805 24.5455 7.2415C24.108 7.4025 23.7142 7.65742 23.3642 8.00625L22.883 8.4875L26.1205 11.7688C26.558 12.1771 26.8788 12.6438 27.083 13.1687C27.2872 13.6938 27.3892 14.2479 27.3892 14.8313C27.3892 16.0563 26.9739 17.0847 26.1432 17.9165C25.3126 18.7483 24.2842 19.1637 23.058 19.1625C22.4747 19.1625 21.9135 19.0604 21.3745 18.8562C20.8355 18.6521 20.3612 18.3458 19.9517 17.9375L16.6687 14.7L9.01248 22.3562C8.92498 22.4437 8.85965 22.5388 8.81648 22.6415C8.77332 22.7442 8.75115 22.8533 8.74998 22.9688C8.74998 23.2021 8.83748 23.4138 9.01248 23.604C9.18748 23.7942 9.39165 23.8887 9.62498 23.8875C9.74165 23.8875 9.85832 23.8583 9.97498 23.8C10.0917 23.7417 10.1792 23.6833 10.2375 23.625L16.1875 17.675L18.6375 20.125L12.7312 26.075C12.6437 26.1625 12.5784 26.2576 12.5352 26.3602C12.4921 26.4629 12.4699 26.572 12.4687 26.6875C12.4687 26.9208 12.5562 27.125 12.7312 27.3C12.9062 27.475 13.1104 27.5625 13.3437 27.5625C13.4604 27.5625 13.5771 27.5333 13.6937 27.475C13.8104 27.4167 13.8979 27.3583 13.9562 27.3L19.9062 21.3938L22.3562 23.8438L16.45 29.7937C16.3625 29.8521 16.2972 29.9396 16.254 30.0562C16.2108 30.1729 16.1887 30.2896 16.1875 30.4062C16.1875 30.6396 16.275 30.8438 16.45 31.0188C16.625 31.1938 16.8292 31.2812 17.0625 31.2812C17.1792 31.2812 17.2888 31.2591 17.3915 31.2148C17.4942 31.1704 17.5887 31.1051 17.675 31.0188L23.625 25.1125L26.075 27.5625L20.125 33.5125C20.0375 33.6 19.9722 33.6945 19.929 33.796C19.8858 33.8975 19.8637 34.0072 19.8625 34.125C19.8625 34.3583 19.9576 34.5625 20.1477 34.7375C20.3379 34.9125 20.5491 35 20.7812 35ZM20.7375 38.5C19.6583 38.5 18.7034 38.143 17.8727 37.429C17.0421 36.715 16.5532 35.8178 16.4062 34.7375C15.4146 34.5917 14.5833 34.1833 13.9125 33.5125C13.2417 32.8417 12.8333 32.0104 12.6875 31.0188C11.6958 30.8729 10.8722 30.4576 10.2165 29.7728C9.56082 29.0879 9.15948 28.2637 9.01248 27.3C7.90415 27.1542 6.99998 26.6729 6.29998 25.8562C5.59998 25.0396 5.24998 24.0771 5.24998 22.9688C5.24998 22.3854 5.35965 21.8242 5.57898 21.2852C5.79832 20.7463 6.11157 20.272 6.51873 19.8625L16.6687 9.75625L22.4 15.4875C22.4583 15.575 22.5458 15.6409 22.6625 15.6853C22.7792 15.7296 22.8958 15.7512 23.0125 15.75C23.275 15.75 23.4937 15.6701 23.6687 15.5103C23.8437 15.3504 23.9312 15.1387 23.9312 14.875C23.9312 14.7583 23.9091 14.6417 23.8647 14.525C23.8204 14.4083 23.7551 14.3208 23.6687 14.2625L17.4125 8.00625C17.0917 7.65625 16.7201 7.40133 16.2977 7.2415C15.8754 7.08167 15.4303 7.00117 14.9625 7C14.525 7 14.0875 7.0805 13.65 7.2415C13.2125 7.4025 12.8187 7.65742 12.4687 8.00625L6.29998 14.2188C6.03748 14.4812 5.81873 14.7875 5.64373 15.1375C5.46873 15.4875 5.35207 15.8375 5.29373 16.1875C5.2354 16.5375 5.2354 16.8951 5.29373 17.2603C5.35207 17.6254 5.46873 17.9678 5.64373 18.2875L3.10623 20.825C2.6104 20.1542 2.24582 19.418 2.01248 18.6165C1.77915 17.815 1.69165 17.0053 1.74998 16.1875C1.80832 15.3697 2.01248 14.5752 2.36248 13.804C2.71248 13.0328 3.19373 12.3398 3.80623 11.725L9.97498 5.55625C10.675 4.88542 11.4555 4.375 12.3165 4.025C13.1775 3.675 14.0595 3.5 14.9625 3.5C15.8655 3.5 16.7481 3.675 17.6102 4.025C18.4724 4.375 19.2377 4.88542 19.9062 5.55625L20.3875 6.0375L20.8687 5.55625C21.5687 4.88542 22.3492 4.375 23.2102 4.025C24.0712 3.675 24.9532 3.5 25.8562 3.5C26.7592 3.5 27.6418 3.675 28.504 4.025C29.3662 4.375 30.1315 4.88542 30.8 5.55625L38.1937 12.95C38.8646 13.6208 39.375 14.3938 39.725 15.2688C40.075 16.1438 40.25 17.0333 40.25 17.9375C40.25 18.8417 40.075 19.7242 39.725 20.5852C39.375 21.4462 38.8646 22.2116 38.1937 22.8813L23.8437 37.1875C23.4354 37.5958 22.9617 37.9167 22.4227 38.15C21.8837 38.3833 21.322 38.5 20.7375 38.5Z" fill="white"/>
</svg>
