<svg width="42" height="42" viewBox="0 0 42 42" fill="none" xmlns="http://www.w3.org/2000/svg">
<path d="M0 31.5V28.7437C0 27.4896 0.641667 26.4688 1.925 25.6813C3.20833 24.8938 4.9 24.5 7 24.5C7.37917 24.5 7.74375 24.5076 8.09375 24.5227C8.44375 24.5379 8.77917 24.5741 9.1 24.6312C8.69167 25.2437 8.38542 25.8854 8.18125 26.5562C7.97708 27.2271 7.875 27.9271 7.875 28.6562V31.5H0ZM10.5 31.5V28.6562C10.5 27.7229 10.7555 26.8695 11.2665 26.096C11.7775 25.3225 12.4991 24.6447 13.4313 24.0625C14.3634 23.4803 15.4793 23.0428 16.779 22.75C18.0787 22.4572 19.4857 22.3113 21 22.3125C22.5458 22.3125 23.968 22.4583 25.2665 22.75C26.565 23.0417 27.6803 23.4792 28.6125 24.0625C29.5447 24.6458 30.2593 25.3243 30.7563 26.0977C31.2533 26.8713 31.5012 27.7241 31.5 28.6562V31.5H10.5ZM34.125 31.5V28.6562C34.125 27.8979 34.0305 27.1833 33.8415 26.5125C33.6525 25.8417 33.3678 25.2146 32.9875 24.6312C33.3083 24.5729 33.6367 24.5367 33.9728 24.5227C34.3088 24.5087 34.6512 24.5012 35 24.5C37.1 24.5 38.7917 24.8868 40.075 25.6602C41.3583 26.4338 42 27.4616 42 28.7437V31.5H34.125ZM7 22.75C6.0375 22.75 5.21383 22.4076 4.529 21.7227C3.84417 21.0379 3.50117 20.2137 3.5 19.25C3.5 18.2583 3.843 17.4271 4.529 16.7562C5.215 16.0854 6.03867 15.75 7 15.75C7.99167 15.75 8.82292 16.0854 9.49375 16.7562C10.1646 17.4271 10.5 18.2583 10.5 19.25C10.5 20.2125 10.1646 21.0367 9.49375 21.7227C8.82292 22.4088 7.99167 22.7512 7 22.75ZM35 22.75C34.0375 22.75 33.2138 22.4076 32.529 21.7227C31.8442 21.0379 31.5012 20.2137 31.5 19.25C31.5 18.2583 31.843 17.4271 32.529 16.7562C33.215 16.0854 34.0387 15.75 35 15.75C35.9917 15.75 36.8229 16.0854 37.4937 16.7562C38.1646 17.4271 38.5 18.2583 38.5 19.25C38.5 20.2125 38.1646 21.0367 37.4937 21.7227C36.8229 22.4088 35.9917 22.7512 35 22.75ZM21 21C19.5417 21 18.3021 20.4896 17.2812 19.4688C16.2604 18.4479 15.75 17.2083 15.75 15.75C15.75 14.2625 16.2604 13.0159 17.2812 12.0102C18.3021 11.0046 19.5417 10.5012 21 10.5C22.4875 10.5 23.7347 11.0034 24.7415 12.0102C25.7483 13.0171 26.2512 14.2637 26.25 15.75C26.25 17.2083 25.7472 18.4479 24.7415 19.4688C23.7358 20.4896 22.4887 21 21 21Z" fill="black"/>
</svg>
