<svg width="30" height="16" viewBox="0 0 30 16" fill="none" xmlns="http://www.w3.org/2000/svg">
<path d="M6.25 11.485H9.075C10.3375 11.485 11.6163 11.6175 12.845 11.87C15.0389 12.3193 17.2959 12.3693 19.5075 12.0175C20.5925 11.8425 21.6575 11.5738 22.6225 11.1088C23.4925 10.6875 24.5587 10.0963 25.275 9.4325C25.99 8.77 26.735 7.68625 27.2625 6.83875C27.7175 6.11125 27.4975 5.22 26.78 4.67875C26.3766 4.38602 25.8909 4.22838 25.3925 4.22838C24.8941 4.22838 24.4084 4.38602 24.005 4.67875L21.7462 6.385C20.8712 7.0475 19.915 7.65625 18.7762 7.8375C18.6387 7.85917 18.495 7.87875 18.345 7.89625M18.345 7.89625L18.2075 7.91125M18.345 7.89625C18.545 7.84204 18.7285 7.73895 18.8787 7.59625C19.0674 7.43349 19.2215 7.23453 19.3319 7.01116C19.4423 6.78778 19.5067 6.54453 19.5214 6.29579C19.5361 6.04706 19.5007 5.79792 19.4174 5.5631C19.334 5.32829 19.2044 5.11258 19.0363 4.92875C18.8734 4.74792 18.6836 4.59319 18.4738 4.47C14.9775 2.38375 9.53625 3.9725 6.25 6.30375M18.345 7.89625C18.2999 7.90632 18.2537 7.91135 18.2075 7.91125M18.2075 7.91125C17.4536 7.9868 16.6942 7.98848 15.94 7.91625" stroke="black" stroke-width="2.625" stroke-linecap="round"/>
<path d="M6.25 5.37537C6.25 4.33984 5.41053 3.50037 4.375 3.50037C3.33947 3.50037 2.5 4.33984 2.5 5.37537V11.6254C2.5 12.6609 3.33947 13.5004 4.375 13.5004C5.41053 13.5004 6.25 12.6609 6.25 11.6254V5.37537Z" stroke="black" stroke-width="2.625"/>
</svg>
