<svg width="42" height="42" viewBox="0 0 42 42" fill="none" xmlns="http://www.w3.org/2000/svg">
<path d="M21 9.62498L20.055 10.535C20.1774 10.662 20.3242 10.763 20.4866 10.8321C20.649 10.9011 20.8236 10.9366 21 10.9366C21.1764 10.9366 21.351 10.9011 21.5134 10.8321C21.6758 10.763 21.8226 10.662 21.945 10.535L21 9.62498ZM16.4955 32.0635C13.8425 29.9722 10.9428 27.93 8.6415 25.34C6.3875 22.799 4.8125 19.8362 4.8125 15.9897H2.1875C2.1875 20.6552 4.13 24.2147 6.67975 27.083C9.18225 29.9005 12.3742 32.158 14.8697 34.125L16.4955 32.0635ZM4.8125 15.9897C4.8125 12.2272 6.93875 9.07023 9.842 7.74198C12.663 6.45223 16.4535 6.79348 20.055 10.535L21.945 8.71673C17.675 4.27698 12.712 3.54373 8.75 5.35498C4.8755 7.12773 2.1875 11.2437 2.1875 15.9897H4.8125ZM14.8697 34.125C15.7675 34.832 16.73 35.5845 17.7047 36.155C18.6795 36.7255 19.7925 37.1875 21 37.1875V34.5625C20.4575 34.5625 19.8205 34.3525 19.0295 33.8887C18.2367 33.4267 17.416 32.7897 16.4955 32.0635L14.8697 34.125ZM27.1303 34.125C29.6257 32.1562 32.8178 29.9022 35.3203 27.083C37.87 24.213 39.8125 20.6552 39.8125 15.9897H37.1875C37.1875 19.8362 35.6125 22.799 33.3585 25.34C31.0573 27.93 28.1575 29.9722 25.5045 32.0635L27.1303 34.125ZM39.8125 15.9897C39.8125 11.2437 37.1263 7.12773 33.25 5.35498C29.288 3.54373 24.3285 4.27698 20.055 8.71498L21.945 10.535C25.5465 6.79523 29.337 6.45223 32.158 7.74198C35.0612 9.07023 37.1875 12.2255 37.1875 15.9897H39.8125ZM25.5045 32.0635C24.584 32.7897 23.7633 33.4267 22.9705 33.8887C22.1778 34.3507 21.5425 34.5625 21 34.5625V37.1875C22.2075 37.1875 23.3205 36.7237 24.2952 36.155C25.2718 35.5845 26.2325 34.832 27.1303 34.125L25.5045 32.0635Z" fill="black"/>
</svg>
