<svg width="44" height="44" viewBox="0 0 44 44" fill="none" xmlns="http://www.w3.org/2000/svg">
<path d="M31.9257 19.0923C33 18.018 33 16.291 33 12.8333C33 9.37567 33 7.64867 31.9257 6.57433M31.9257 19.0923C30.8513 20.1667 29.1243 20.1667 25.6667 20.1667H18.3333C14.8757 20.1667 13.1487 20.1667 12.0743 19.0923M31.9257 6.57433C30.8513 5.5 29.1243 5.5 25.6667 5.5H18.3333C14.8757 5.5 13.1487 5.5 12.0743 6.57433M12.0743 6.57433C11 7.64867 11 9.37567 11 12.8333C11 16.291 11 18.018 12.0743 19.0923M23.8333 12.8333C23.8333 13.3196 23.6402 13.7859 23.2964 14.1297C22.9525 14.4735 22.4862 14.6667 22 14.6667C21.5138 14.6667 21.0475 14.4735 20.7036 14.1297C20.3598 13.7859 20.1667 13.3196 20.1667 12.8333C20.1667 12.3471 20.3598 11.8808 20.7036 11.537C21.0475 11.1932 21.5138 11 22 11C22.4862 11 22.9525 11.1932 23.2964 11.537C23.6402 11.8808 23.8333 12.3471 23.8333 12.8333Z" stroke="black" stroke-width="3"/>
<path d="M33 11C31.5413 11 30.1424 10.4205 29.1109 9.38909C28.0795 8.35764 27.5 6.95869 27.5 5.5M33 14.6667C31.5413 14.6667 30.1424 15.2461 29.1109 16.2776C28.0795 17.309 27.5 18.708 27.5 20.1667M11 11C12.4587 11 13.8577 10.4205 14.8891 9.38909C15.9206 8.35764 16.5 6.95869 16.5 5.5M11 14.6667C12.4587 14.6667 13.8577 15.2461 14.8891 16.2776C15.9206 17.309 16.5 18.708 16.5 20.1667M9.16669 37.378H13.31C15.1617 37.378 17.0372 37.5723 18.8394 37.9427C22.0571 38.6017 25.3673 38.6749 28.611 38.159C30.2024 37.9023 31.7644 37.5082 33.1797 36.8262C34.4557 36.2083 36.0195 35.3412 37.07 34.3677C38.1187 33.396 39.2114 31.8065 39.985 30.5635C40.6524 29.4965 40.3297 28.1893 39.2774 27.3955C38.6857 26.9662 37.9734 26.735 37.2424 26.735C36.5113 26.735 35.799 26.9662 35.2074 27.3955L31.8945 29.898C30.6112 30.8697 29.2087 31.7625 27.5385 32.0283C27.3369 32.0601 27.126 32.0888 26.906 32.1145M26.906 32.1145L26.7044 32.1365M26.906 32.1145C27.1994 32.035 27.4684 31.8838 27.6889 31.6745C27.9656 31.4358 28.1915 31.144 28.3534 30.8164C28.5153 30.4887 28.6099 30.132 28.6314 29.7672C28.6529 29.4024 28.6011 29.0369 28.4788 28.6925C28.3566 28.3482 28.1665 28.0318 27.9199 27.7622C27.681 27.4969 27.4027 27.27 27.0949 27.0893C21.967 24.0295 13.9865 26.3597 9.16669 29.7788M26.906 32.1145C26.8398 32.1293 26.7722 32.1366 26.7044 32.1365M26.7044 32.1365C25.5987 32.2473 24.4848 32.2498 23.3787 32.1438" stroke="black" stroke-width="3" stroke-linecap="round"/>
<path d="M9.16669 28.4166C9.16669 26.8978 7.93547 25.6666 6.41669 25.6666C4.8979 25.6666 3.66669 26.8978 3.66669 28.4166V37.5833C3.66669 39.1021 4.8979 40.3333 6.41669 40.3333C7.93547 40.3333 9.16669 39.1021 9.16669 37.5833V28.4166Z" stroke="black" stroke-width="3"/>
</svg>
