<svg width="30" height="16" viewBox="0 0 30 16" fill="none" xmlns="http://www.w3.org/2000/svg">
<path d="M23.75 4.515H20.925C19.6625 4.515 18.3837 4.3825 17.155 4.13C14.9611 3.68069 12.7041 3.63072 10.4925 3.9825C9.4075 4.1575 8.3425 4.42625 7.3775 4.89125C6.5075 5.3125 5.44125 5.90375 4.725 6.5675C4.01 7.23 3.265 8.31375 2.7375 9.16125C2.2825 9.88875 2.5025 10.78 3.22 11.3212C3.62341 11.614 4.10907 11.7716 4.6075 11.7716C5.10593 11.7716 5.59159 11.614 5.995 11.3212L8.25375 9.615C9.12875 8.9525 10.085 8.34375 11.2238 8.1625C11.3613 8.14083 11.505 8.12125 11.655 8.10375M11.655 8.10375L11.7925 8.08875M11.655 8.10375C11.455 8.15796 11.2715 8.26105 11.1213 8.40375C10.9326 8.56651 10.7785 8.76547 10.6681 8.98884C10.5577 9.21222 10.4933 9.45547 10.4786 9.70421C10.4639 9.95294 10.4993 10.2021 10.5826 10.4369C10.666 10.6717 10.7956 10.8874 10.9637 11.0712C11.1266 11.2521 11.3164 11.4068 11.5262 11.53C15.0225 13.6162 20.4638 12.0275 23.75 9.69625M11.655 8.10375C11.7001 8.09368 11.7463 8.08865 11.7925 8.08875M11.7925 8.08875C12.5464 8.0132 13.3058 8.01152 14.06 8.08375" stroke="black" stroke-width="2.625" stroke-linecap="round"/>
<path d="M23.75 10.6246C23.75 11.6602 24.5895 12.4996 25.625 12.4996C26.6605 12.4996 27.5 11.6602 27.5 10.6246V4.37463C27.5 3.33909 26.6605 2.49963 25.625 2.49963C24.5895 2.49963 23.75 3.33909 23.75 4.37463V10.6246Z" stroke="black" stroke-width="2.625"/>
</svg>
