<svg width="42" height="42" viewBox="0 0 42 42" fill="none" xmlns="http://www.w3.org/2000/svg">
<mask id="path-1-inside-1_12_115" fill="white">
<path d="M21 5.4355L20.111 6.4015C20.3532 6.62409 20.6702 6.74762 20.9991 6.74762C21.3281 6.74762 21.645 6.62409 21.8872 6.4015L21 5.4355ZM18.536 14.343C17.3285 13.4628 16.0388 12.3918 15.0658 11.263C14.0613 10.0993 13.5625 9.0685 13.5625 8.25125H10.9375C10.9375 10.031 11.949 11.6708 13.0778 12.978C14.238 14.322 15.7045 15.5278 16.989 16.464L18.536 14.343ZM13.5625 8.25125C13.5625 6.398 14.4725 5.341 15.568 4.9735C16.709 4.5885 18.41 4.837 20.111 6.4015L21.8872 4.4695C19.6525 2.415 16.982 1.729 14.7315 2.485C12.4338 3.2585 10.9375 5.418 10.9375 8.25125H13.5625ZM25.011 16.464C26.2955 15.5295 27.762 14.322 28.9223 12.978C30.051 11.6708 31.0625 10.031 31.0625 8.25125H28.4375C28.4375 9.0685 27.9405 10.0993 26.9342 11.263C25.9612 12.3918 24.6733 13.4628 23.4658 14.343L25.011 16.464ZM31.0625 8.25125C31.0625 5.418 29.5662 3.2585 27.2703 2.485C25.0198 1.729 22.3475 2.415 20.1128 4.4695L21.889 6.4015C23.59 4.837 25.2927 4.5885 26.4337 4.9735C27.5275 5.341 28.4375 6.398 28.4375 8.25125H31.0625ZM16.989 16.464C18.3103 17.4265 19.3585 18.2455 21 18.2455V15.6205C20.3612 15.6205 20.0112 15.4193 18.536 14.343L16.989 16.464ZM23.464 14.343C21.9888 15.4193 21.6388 15.6205 21 15.6205V18.2455C22.6415 18.2455 23.6897 17.4283 25.011 16.464L23.464 14.343Z"/>
</mask>
<path d="M21 5.4355L20.111 6.4015C20.3532 6.62409 20.6702 6.74762 20.9991 6.74762C21.3281 6.74762 21.645 6.62409 21.8872 6.4015L21 5.4355ZM18.536 14.343C17.3285 13.4628 16.0388 12.3918 15.0658 11.263C14.0613 10.0993 13.5625 9.0685 13.5625 8.25125H10.9375C10.9375 10.031 11.949 11.6708 13.0778 12.978C14.238 14.322 15.7045 15.5278 16.989 16.464L18.536 14.343ZM13.5625 8.25125C13.5625 6.398 14.4725 5.341 15.568 4.9735C16.709 4.5885 18.41 4.837 20.111 6.4015L21.8872 4.4695C19.6525 2.415 16.982 1.729 14.7315 2.485C12.4338 3.2585 10.9375 5.418 10.9375 8.25125H13.5625ZM25.011 16.464C26.2955 15.5295 27.762 14.322 28.9223 12.978C30.051 11.6708 31.0625 10.031 31.0625 8.25125H28.4375C28.4375 9.0685 27.9405 10.0993 26.9342 11.263C25.9612 12.3918 24.6733 13.4628 23.4658 14.343L25.011 16.464ZM31.0625 8.25125C31.0625 5.418 29.5662 3.2585 27.2703 2.485C25.0198 1.729 22.3475 2.415 20.1128 4.4695L21.889 6.4015C23.59 4.837 25.2927 4.5885 26.4337 4.9735C27.5275 5.341 28.4375 6.398 28.4375 8.25125H31.0625ZM16.989 16.464C18.3103 17.4265 19.3585 18.2455 21 18.2455V15.6205C20.3612 15.6205 20.0112 15.4193 18.536 14.343L16.989 16.464ZM23.464 14.343C21.9888 15.4193 21.6388 15.6205 21 15.6205V18.2455C22.6415 18.2455 23.6897 17.4283 25.011 16.464L23.464 14.343Z" fill="black"/>
<path d="M17.7625 15.4035L16.5506 14.5196L15.7771 15.5801L16.989 16.464L18.2009 17.3479L18.9744 16.2874L17.7625 15.4035ZM24.2375 15.4035L23.0256 16.2874L23.7991 17.3479L25.011 16.464L26.2229 15.5801L25.4494 14.5196L24.2375 15.4035ZM21 16.933H19.5V18.2455H21H22.5V16.933H21ZM13.5625 8.25125V6.75125H10.9375V8.25125V9.75125H13.5625V8.25125ZM16.989 16.464L18.2009 17.3479L19.7479 15.2269L18.536 14.343L17.3241 13.4591L15.7771 15.5801L16.989 16.464ZM31.0625 8.25125V6.75125H28.4375V8.25125V9.75125H31.0625V8.25125ZM21 18.2455H22.5V15.6205H21H19.5V18.2455H21ZM16.989 16.464L15.2219 18.8884L15.2226 18.8888L16.989 16.464ZM21 5.4355L23.2095 3.40615L21.0022 1.00295L18.7925 3.40398L21 5.4355ZM20.111 6.4015L18.0801 8.60957L18.081 8.61037L20.111 6.4015ZM21.8872 6.4015L23.9172 8.61037L26.1255 6.58097L24.0967 4.37215L21.8872 6.4015ZM18.536 14.343L20.3041 11.9194L20.3032 11.9188L18.536 14.343ZM15.0658 11.263L17.338 9.30425L17.3368 9.30276L15.0658 11.263ZM13.0778 12.978L15.3486 11.0176L15.3484 11.0174L13.0778 12.978ZM15.568 4.9735L16.5221 7.81773L16.5271 7.81604L15.568 4.9735ZM21.8872 4.4695L24.0957 6.49993L26.1262 4.29141L23.9176 2.26098L21.8872 4.4695ZM14.7315 2.485L13.7762 -0.35883L13.7744 -0.358221L14.7315 2.485ZM28.9223 12.978L26.6516 11.0174L26.6514 11.0176L28.9223 12.978ZM26.9342 11.263L24.6649 9.30081L24.662 9.30425L26.9342 11.263ZM23.4658 14.343L21.6985 11.9188L19.275 13.6855L21.041 16.1095L23.4658 14.343ZM27.2703 2.485L28.228 -0.358002L28.2256 -0.35883L27.2703 2.485ZM20.1128 4.4695L18.0824 2.26098L15.8738 4.29141L17.9043 6.49993L20.1128 4.4695ZM21.889 6.4015L19.6805 8.43193L21.7114 10.6408L23.9199 8.60957L21.889 6.4015ZM26.4337 4.9735L25.4746 7.81605L25.4782 7.81727L26.4337 4.9735ZM23.464 14.343L25.8878 12.5752L24.1198 10.1511L21.6959 11.9194L23.464 14.343ZM21 5.4355L18.7925 3.40398L17.9035 4.36998L20.111 6.4015L22.3185 8.43302L23.2075 7.46702L21 5.4355ZM20.111 6.4015L18.081 8.61037C18.8768 9.34175 19.9183 9.74762 20.9991 9.74762V6.74762V3.74762C21.4221 3.74762 21.8296 3.90644 22.141 4.19263L20.111 6.4015ZM20.9991 6.74762V9.74762C22.08 9.74762 23.1214 9.34175 23.9172 8.61037L21.8872 6.4015L19.8573 4.19263C20.1687 3.90644 20.5762 3.74762 20.9991 3.74762V6.74762ZM21.8872 6.4015L24.0967 4.37215L23.2095 3.40615L21 5.4355L18.7905 7.46485L19.6778 8.43085L21.8872 6.4015ZM18.536 14.343L20.3032 11.9188C19.1813 11.1009 18.0974 10.1852 17.338 9.30425L15.0658 11.263L12.7935 13.2218C13.9801 14.5983 15.4757 15.8246 16.7688 16.7672L18.536 14.343ZM15.0658 11.263L17.3368 9.30276C16.9516 8.85655 16.7355 8.51729 16.6258 8.2958C16.5109 8.06376 16.5625 8.06322 16.5625 8.25125H13.5625H10.5625C10.5625 10.1686 11.6492 11.8961 12.7947 13.2232L15.0658 11.263ZM10.9375 8.25125H7.9375C7.9375 11.1306 9.53634 13.4669 10.8071 14.9386L13.0778 12.978L15.3484 11.0174C14.3617 9.87457 13.9375 8.93142 13.9375 8.25125H10.9375ZM13.0778 12.978L10.8069 14.9384C12.1792 16.5281 13.85 17.8884 15.2219 18.8884L16.989 16.464L18.7561 14.0397C17.559 13.1671 16.2968 12.1159 15.3486 11.0176L13.0778 12.978ZM13.5625 8.25125H16.5625C16.5625 7.8223 16.6634 7.70037 16.6438 7.72951C16.6382 7.73777 16.6219 7.75801 16.5938 7.77909C16.5671 7.79916 16.5414 7.81127 16.5221 7.81773L15.568 4.9735L14.6139 2.12927C12.1523 2.95503 10.5625 5.26728 10.5625 8.25125H13.5625ZM15.568 4.9735L16.5271 7.81604C16.4066 7.8567 16.9951 7.61161 18.0801 8.60957L20.111 6.4015L22.1419 4.19344C19.8249 2.06239 17.0114 1.3203 14.6089 2.13096L15.568 4.9735ZM20.111 6.4015L22.3195 8.43193L24.0957 6.49993L21.8872 4.4695L19.6788 2.43907L17.9025 4.37107L20.111 6.4015ZM21.8872 4.4695L23.9176 2.26098C21.0772 -0.350308 17.297 -1.54155 13.7762 -0.35883L14.7315 2.485L15.6868 5.32883C16.667 4.99956 18.2278 5.18031 19.8569 6.67802L21.8872 4.4695ZM14.7315 2.485L13.7744 -0.358221C10.0989 0.879075 7.9375 4.30384 7.9375 8.25125H10.9375H13.9375C13.9375 6.53217 14.7686 5.63793 15.6886 5.32822L14.7315 2.485ZM25.011 16.464L26.7759 18.8899C28.1512 17.8894 29.8214 16.5273 31.1931 14.9384L28.9223 12.978L26.6514 11.0176C25.7026 12.1167 24.4398 13.1696 23.2461 14.0381L25.011 16.464ZM28.9223 12.978L31.1929 14.9386C32.4637 13.4669 34.0625 11.1306 34.0625 8.25125H31.0625H28.0625C28.0625 8.93142 27.6383 9.87457 26.6516 11.0174L28.9223 12.978ZM28.4375 8.25125H25.4375C25.4375 8.06492 25.4885 8.06604 25.3744 8.29673C25.2653 8.51723 25.0499 8.85561 24.6649 9.30081L26.9342 11.263L29.2036 13.2252C30.3543 11.8943 31.4375 10.1672 31.4375 8.25125H28.4375ZM26.9342 11.263L24.662 9.30425C23.9018 10.1861 22.819 11.102 21.6985 11.9188L23.4658 14.343L25.233 16.7672C26.5275 15.8235 28.0207 14.5974 29.2065 13.2218L26.9342 11.263ZM23.4658 14.343L21.041 16.1095L22.5863 18.2305L25.011 16.464L27.4357 14.6975L25.8905 12.5765L23.4658 14.343ZM31.0625 8.25125H34.0625C34.0625 4.30427 31.9016 0.879584 28.228 -0.358001L27.2703 2.485L26.3125 5.328C27.2309 5.63742 28.0625 6.53173 28.0625 8.25125H31.0625ZM27.2703 2.485L28.2256 -0.35883C24.7051 -1.54143 20.9231 -0.350618 18.0824 2.26098L20.1128 4.4695L22.1431 6.67802C23.7719 5.18062 25.3344 4.99943 26.3149 5.32883L27.2703 2.485ZM20.1128 4.4695L17.9043 6.49993L19.6805 8.43193L21.889 6.4015L24.0975 4.37107L22.3212 2.43907L20.1128 4.4695ZM21.889 6.4015L23.9199 8.60957C25.0044 7.61209 25.5945 7.85651 25.4746 7.81604L26.4337 4.9735L27.3929 2.13096C24.9909 1.32049 22.1756 2.06191 19.8581 4.19344L21.889 6.4015ZM26.4337 4.9735L25.4782 7.81727C25.4584 7.81061 25.4325 7.79831 25.4058 7.7782C25.3777 7.75709 25.3614 7.7369 25.356 7.72882C25.3366 7.70003 25.4375 7.82233 25.4375 8.25125H28.4375H31.4375C31.4375 5.26797 29.8484 2.95602 27.3893 2.12973L26.4337 4.9735ZM16.989 16.464L15.2226 18.8888C16.3819 19.7333 18.2185 21.2455 21 21.2455V18.2455V15.2455C20.4985 15.2455 20.2386 15.1197 18.7554 14.0392L16.989 16.464ZM21 15.6205V12.6205C20.9985 12.6205 21.0288 12.6204 21.0797 12.6256C21.1332 12.6312 21.1973 12.6414 21.2667 12.6584C21.412 12.694 21.4927 12.7378 21.4772 12.7297C21.4466 12.7136 21.3512 12.6592 21.1408 12.5161C20.9344 12.3757 20.6699 12.1862 20.3041 11.9194L18.536 14.343L16.7679 16.7666C17.4578 17.2699 18.1011 17.7335 18.6862 18.041C19.4745 18.4553 20.2015 18.6205 21 18.6205V15.6205ZM23.464 14.343L21.6959 11.9194C21.3301 12.1862 21.0656 12.3757 20.8592 12.5161C20.6488 12.6592 20.5534 12.7136 20.5228 12.7297C20.5073 12.7378 20.588 12.694 20.7333 12.6584C20.8027 12.6414 20.8668 12.6312 20.9203 12.6256C20.9712 12.6204 21.0015 12.6205 21 12.6205V15.6205V18.6205C21.7985 18.6205 22.5255 18.4553 23.3138 18.041C23.8989 17.7335 24.5422 17.2699 25.2321 16.7666L23.464 14.343ZM21 18.2455V21.2455C23.7812 21.2455 25.6158 19.7366 26.7795 18.8873L25.011 16.464L23.2425 14.0407C21.7637 15.1199 21.5018 15.2455 21 15.2455V18.2455ZM25.011 16.464L27.4348 14.6962L25.8878 12.5752L23.464 14.343L21.0402 16.1108L22.5872 18.2318L25.011 16.464Z" fill="white" mask="url(#path-1-inside-1_12_115)"/>
<path d="M8.75 35.679H12.705C14.4725 35.679 16.2628 35.8645 17.983 36.218C21.0545 36.847 24.2142 36.917 27.3105 36.4245C28.8295 36.1795 30.3205 35.8032 31.6715 35.1522C32.8895 34.5625 34.3822 33.7347 35.385 32.8055C36.386 31.878 37.429 30.3607 38.1675 29.1742C38.8045 28.1557 38.4965 26.908 37.492 26.1502C36.9272 25.7404 36.2473 25.5197 35.5495 25.5197C34.8517 25.5197 34.1718 25.7404 33.607 26.1502L30.4447 28.539C29.2197 29.4665 27.881 30.3187 26.2867 30.5725C26.0942 30.6028 25.893 30.6302 25.683 30.6547M25.683 30.6547L25.4905 30.6757M25.683 30.6547C25.963 30.5789 26.2198 30.4345 26.4302 30.2347C26.6944 30.0069 26.9101 29.7283 27.0646 29.4156C27.2192 29.1029 27.3094 28.7623 27.33 28.4141C27.3505 28.0659 27.301 27.7171 27.1843 27.3883C27.0677 27.0596 26.8862 26.7576 26.6508 26.5002C26.4227 26.2471 26.1571 26.0305 25.8633 25.858C20.9685 22.9372 13.3507 25.1615 8.75 28.4252M25.683 30.6547C25.6198 30.6688 25.5552 30.6759 25.4905 30.6757M25.4905 30.6757C24.4351 30.7815 23.3719 30.7839 22.316 30.6827" stroke="white" stroke-width="3" stroke-linecap="round"/>
<path d="M8.75 27.125C8.75 25.6753 7.57475 24.5 6.125 24.5C4.67525 24.5 3.5 25.6753 3.5 27.125V35.875C3.5 37.3247 4.67525 38.5 6.125 38.5C7.57475 38.5 8.75 37.3247 8.75 35.875V27.125Z" stroke="white" stroke-width="3"/>
</svg>
